<?xml version="1.0" encoding="utf-8" standalone="no"?>
<!DOCTYPE svg PUBLIC "-//W3C//DTD SVG 1.1//EN"
  "http://www.w3.org/Graphics/SVG/1.1/DTD/svg11.dtd">
<svg xmlns:xlink="http://www.w3.org/1999/xlink" width="728.64pt" height="413.568pt" viewBox="0 0 728.64 413.568" xmlns="http://www.w3.org/2000/svg" version="1.1">
 <metadata>
  <rdf:RDF xmlns:dc="http://purl.org/dc/elements/1.1/" xmlns:cc="http://creativecommons.org/ns#" xmlns:rdf="http://www.w3.org/1999/02/22-rdf-syntax-ns#">
   <cc:Work>
    <dc:type rdf:resource="http://purl.org/dc/dcmitype/StillImage"/>
    <dc:date>2026-08-18T22:23:44.022027</dc:date>
    <dc:format>image/svg+xml</dc:format>
    <dc:creator>
     <cc:Agent>
      <dc:title>Matplotlib v3.10.9, https://matplotlib.org/</dc:title>
     </cc:Agent>
    </dc:creator>
   </cc:Work>
  </rdf:RDF>
 </metadata>
 <defs>
  <style type="text/css">*{stroke-linejoin: round; stroke-linecap: butt}</style>
 </defs>
 <g id="figure_1">
  <g id="patch_1">
   <path d="M 0 413.568 
L 728.64 413.568 
L 728.64 0 
L 0 0 
z
" style="fill: #ffffff"/>
  </g>
  <g id="axes_1">
   <g id="patch_2">
    <path d="M 23.94 129.168 
L 704.7 129.168 
Q 738.18 129.168 738.18 95.904 
L 738.18 15.516 
Q 738.18 -17.748 704.7 -17.748 
L 23.94 -17.748 
Q -9.54 -17.748 -9.54 15.516 
L -9.54 95.904 
Q -9.54 129.168 23.94 129.168 
z
" clip-path="url(#p7ff658e783)" style="fill: #f7f9fc; stroke: #e3e9f2; stroke-width: 1.2; stroke-linejoin: miter"/>
   </g>
   <g id="patch_3">
    <path d="M 23.94 223.416 
L 704.7 223.416 
Q 738.18 223.416 738.18 190.152 
L 738.18 109.764 
Q 738.18 76.5 704.7 76.5 
L 23.94 76.5 
Q -9.54 76.5 -9.54 109.764 
L -9.54 190.152 
Q -9.54 223.416 23.94 223.416 
z
" clip-path="url(#p7ff658e783)" style="fill: #f7f9fc; stroke: #e3e9f2; stroke-width: 1.2; stroke-linejoin: miter"/>
   </g>
   <g id="patch_4">
    <path d="M 23.94 367.56 
L 704.7 367.56 
Q 738.18 367.56 738.18 334.296 
L 738.18 223.416 
Q 738.18 190.152 704.7 190.152 
L 23.94 190.152 
Q -9.54 190.152 -9.54 223.416 
L -9.54 334.296 
Q -9.54 367.56 23.94 367.56 
z
" clip-path="url(#p7ff658e783)" style="fill: #f7f9fc; stroke: #e3e9f2; stroke-width: 1.2; stroke-linejoin: miter"/>
   </g>
   <g id="patch_5">
    <path d="M 235.98 108.1008 
L 492.66 108.1008 
Q 532.836 108.1008 532.836 68.184 
L 532.836 23.832 
Q 532.836 -16.0848 492.66 -16.0848 
L 235.98 -16.0848 
Q 195.804 -16.0848 195.804 23.832 
L 195.804 68.184 
Q 195.804 108.1008 235.98 108.1008 
z
" clip-path="url(#p7ff658e783)" style="fill: #1f3b73; stroke: #1f3b73; stroke-width: 1.5; stroke-linejoin: miter"/>
   </g>
   <g id="patch_6">
    <path d="M 181.017 134.712 
L 250.767 134.712 
Q 290.943 134.712 290.943 94.7952 
L 290.943 70.4016 
Q 290.943 30.4848 250.767 30.4848 
L 181.017 30.4848 
Q 140.841 30.4848 140.841 70.4016 
L 140.841 94.7952 
Q 140.841 134.712 181.017 134.712 
z
" clip-path="url(#p7ff658e783)" style="fill: #dfe7f5; stroke: #1f3b73; stroke-width: 1.5; stroke-linejoin: miter"/>
   </g>
   <g id="patch_7">
    <path d="M 255.231 134.712 
L 324.981 134.712 
Q 365.157 134.712 365.157 94.7952 
L 365.157 70.4016 
Q 365.157 30.4848 324.981 30.4848 
L 255.231 30.4848 
Q 215.055 30.4848 215.055 70.4016 
L 215.055 94.7952 
Q 215.055 134.712 255.231 134.712 
z
" clip-path="url(#p7ff658e783)" style="fill: #dfe7f5; stroke: #1f3b73; stroke-width: 1.5; stroke-linejoin: miter"/>
   </g>
   <g id="patch_8">
    <path d="M 329.445 134.712 
L 399.195 134.712 
Q 439.371 134.712 439.371 94.7952 
L 439.371 70.4016 
Q 439.371 30.4848 399.195 30.4848 
L 329.445 30.4848 
Q 289.269 30.4848 289.269 70.4016 
L 289.269 94.7952 
Q 289.269 134.712 329.445 134.712 
z
" clip-path="url(#p7ff658e783)" style="fill: #dfe7f5; stroke: #1f3b73; stroke-width: 1.5; stroke-linejoin: miter"/>
   </g>
   <g id="patch_9">
    <path d="M 403.659 134.712 
L 473.409 134.712 
Q 513.585 134.712 513.585 94.7952 
L 513.585 70.4016 
Q 513.585 30.4848 473.409 30.4848 
L 403.659 30.4848 
Q 363.483 30.4848 363.483 70.4016 
L 363.483 94.7952 
Q 363.483 134.712 403.659 134.712 
z
" clip-path="url(#p7ff658e783)" style="fill: #dfe7f5; stroke: #1f3b73; stroke-width: 1.5; stroke-linejoin: miter"/>
   </g>
   <g id="patch_10">
    <path d="M 477.873 134.712 
L 547.623 134.712 
Q 587.799 134.712 587.799 94.7952 
L 587.799 70.4016 
Q 587.799 30.4848 547.623 30.4848 
L 477.873 30.4848 
Q 437.697 30.4848 437.697 70.4016 
L 437.697 94.7952 
Q 437.697 134.712 477.873 134.712 
z
" clip-path="url(#p7ff658e783)" style="fill: #dfe7f5; stroke: #1f3b73; stroke-width: 1.5; stroke-linejoin: miter"/>
   </g>
   <g id="patch_11">
    <path d="M 503.82 205.1208 
L 687.96 205.1208 
Q 728.136 205.1208 728.136 165.204 
L 728.136 115.308 
Q 728.136 75.3912 687.96 75.3912 
L 503.82 75.3912 
Q 463.644 75.3912 463.644 115.308 
L 463.644 165.204 
Q 463.644 205.1208 503.82 205.1208 
z
" clip-path="url(#p7ff658e783)" style="fill: #f6e7b4; stroke: #8a6d1a; stroke-width: 1.5; stroke-linejoin: miter"/>
   </g>
   <g id="patch_12">
    <path d="M 40.68 360.3528 
L 191.34 360.3528 
Q 231.516 360.3528 231.516 320.436 
L 231.516 264.996 
Q 231.516 225.0792 191.34 225.0792 
L 40.68 225.0792 
Q 0.504 225.0792 0.504 264.996 
L 0.504 320.436 
Q 0.504 360.3528 40.68 360.3528 
z
" clip-path="url(#p7ff658e783)" style="fill: #eaf4ea; stroke: #2e6b2e; stroke-width: 1.5; stroke-linejoin: miter"/>
   </g>
   <g id="patch_13">
    <path d="M 209.196 360.3528 
L 359.856 360.3528 
Q 400.032 360.3528 400.032 320.436 
L 400.032 264.996 
Q 400.032 225.0792 359.856 225.0792 
L 209.196 225.0792 
Q 169.02 225.0792 169.02 264.996 
L 169.02 320.436 
Q 169.02 360.3528 209.196 360.3528 
z
" clip-path="url(#p7ff658e783)" style="fill: #eaf4ea; stroke: #2e6b2e; stroke-width: 1.5; stroke-linejoin: miter"/>
   </g>
   <g id="patch_14">
    <path d="M 377.712 360.3528 
L 528.372 360.3528 
Q 568.548 360.3528 568.548 320.436 
L 568.548 264.996 
Q 568.548 225.0792 528.372 225.0792 
L 377.712 225.0792 
Q 337.536 225.0792 337.536 264.996 
L 337.536 320.436 
Q 337.536 360.3528 377.712 360.3528 
z
" clip-path="url(#p7ff658e783)" style="fill: #eaf4ea; stroke: #2e6b2e; stroke-width: 1.5; stroke-linejoin: miter"/>
   </g>
   <g id="patch_15">
    <path d="M 546.228 360.3528 
L 696.888 360.3528 
Q 737.064 360.3528 737.064 320.436 
L 737.064 264.996 
Q 737.064 225.0792 696.888 225.0792 
L 546.228 225.0792 
Q 506.052 225.0792 506.052 264.996 
L 506.052 320.436 
Q 506.052 360.3528 546.228 360.3528 
z
" clip-path="url(#p7ff658e783)" style="fill: #eaf4ea; stroke: #2e6b2e; stroke-width: 1.5; stroke-linejoin: miter"/>
   </g>
   <g id="patch_16">
    <path d="M 362.75518 69.424286 
Q 240.167599 166.58794 119.157159 262.501543 
" clip-path="url(#p7ff658e783)" style="fill: none; stroke: #2e6b2e; stroke-width: 1.8; stroke-linecap: round"/>
    <path d="M 119.594865 262.409818 
L 119.157159 262.501543 
L 119.346403 262.096343 
z
" clip-path="url(#p7ff658e783)" style="fill: #2e6b2e; stroke: #2e6b2e; stroke-width: 1.8; stroke-linecap: round"/>
   </g>
   <g id="patch_17">
    <path d="M 363.568766 70.036921 
Q 324.423082 166.589798 286.033534 261.277666 
" clip-path="url(#p7ff658e783)" style="fill: none; stroke: #2e6b2e; stroke-width: 1.8; stroke-linecap: round"/>
    <path d="M 286.369171 260.982119 
L 286.033534 261.277666 
L 285.998478 260.831828 
z
" clip-path="url(#p7ff658e783)" style="fill: #2e6b2e; stroke: #2e6b2e; stroke-width: 1.8; stroke-linecap: round"/>
   </g>
   <g id="patch_18">
    <path d="M 365.141751 70.006889 
Q 408.680782 166.589516 451.392756 261.337483 
" clip-path="url(#p7ff658e783)" style="fill: none; stroke: #2e6b2e; stroke-width: 1.8; stroke-linecap: round"/>
    <path d="M 451.410699 260.890629 
L 451.392756 261.337483 
L 451.046039 261.055016 
z
" clip-path="url(#p7ff658e783)" style="fill: #2e6b2e; stroke: #2e6b2e; stroke-width: 1.8; stroke-linecap: round"/>
   </g>
   <g id="patch_19">
    <path d="M 365.909682 69.400261 
Q 492.940011 166.590774 618.372028 262.558422 
" clip-path="url(#p7ff658e783)" style="fill: none; stroke: #2e6b2e; stroke-width: 1.8; stroke-linecap: round"/>
    <path d="M 618.175874 262.156522 
L 618.372028 262.558422 
L 617.932815 262.474206 
z
" clip-path="url(#p7ff658e783)" style="fill: #2e6b2e; stroke: #2e6b2e; stroke-width: 1.8; stroke-linecap: round"/>
   </g>
   <g id="patch_20">
    <path d="M 432.973515 95.856525 
Q 467.55031 117.525794 500.706055 138.304491 
" clip-path="url(#p7ff658e783)" style="fill: none; stroke-dasharray: 6,4.5; stroke-dashoffset: 0; stroke: #8a6d1a; stroke-width: 1.5; stroke-linecap: round"/>
    <path d="M 500.473322 137.922608 
L 500.706055 138.304491 
L 500.260908 138.261548 
z
" clip-path="url(#p7ff658e783)" style="fill: #8a6d1a; stroke-dasharray: 6,4.5; stroke-dashoffset: 0; stroke: #8a6d1a; stroke-width: 1.5; stroke-linecap: round"/>
   </g>
   <g id="patch_21">
    <path d="M 595.89 167.204327 
Q 595.89 194.31006 595.89 219.738741 
" clip-path="url(#p7ff658e783)" style="fill: none; stroke-dasharray: 6,4.5; stroke-dashoffset: 0; stroke: #8a6d1a; stroke-width: 1.5; stroke-linecap: round"/>
    <path d="M 596.09 219.338741 
L 595.89 219.738741 
L 595.69 219.338741 
z
" clip-path="url(#p7ff658e783)" style="fill: #8a6d1a; stroke-dasharray: 6,4.5; stroke-dashoffset: 0; stroke: #8a6d1a; stroke-width: 1.5; stroke-linecap: round"/>
   </g>
   <g id="text_1">
    <text style="font-weight: 700; font-size: 9px; font-family: 'DejaVu Sans', 'Bitstream Vera Sans', 'Computer Modern Sans Serif', 'Lucida Grande', 'Verdana', 'Geneva', 'Lucid', 'Arial', 'Helvetica', 'Avant Garde', sans-serif; text-anchor: start; fill: #9aa0a6" x="40.68" y="33.487481" transform="rotate(-0 40.68 33.487481)">1 · routing</text>
   </g>
   <g id="text_2">
    <text style="font-weight: 700; font-size: 9px; font-family: 'DejaVu Sans', 'Bitstream Vera Sans', 'Computer Modern Sans Serif', 'Lucida Grande', 'Verdana', 'Geneva', 'Lucid', 'Arial', 'Helvetica', 'Avant Garde', sans-serif; text-anchor: start; fill: #9aa0a6" x="40.68" y="127.735481" transform="rotate(-0 40.68 127.735481)">2 · discovery</text>
   </g>
   <g id="text_3">
    <text style="font-weight: 700; font-size: 9px; font-family: 'DejaVu Sans', 'Bitstream Vera Sans', 'Computer Modern Sans Serif', 'Lucida Grande', 'Verdana', 'Geneva', 'Lucid', 'Arial', 'Helvetica', 'Avant Garde', sans-serif; text-anchor: start; fill: #9aa0a6" x="40.68" y="241.422637" transform="rotate(-0 40.68 241.422637)">3 · workers</text>
   </g>
   <g id="text_4">
    <text style="font-weight: 700; font-size: 11.5px; font-family: 'DejaVu Sans', 'Bitstream Vera Sans', 'Computer Modern Sans Serif', 'Lucida Grande', 'Verdana', 'Geneva', 'Lucid', 'Arial', 'Helvetica', 'Avant Garde', sans-serif; fill: #ffffff" transform="translate(313.895195 41.650264)">MASTER AGENT</text>
    <text style="font-weight: 700; font-size: 11.5px; font-family: 'DejaVu Sans', 'Bitstream Vera Sans', 'Computer Modern Sans Serif', 'Lucida Grande', 'Verdana', 'Geneva', 'Lucid', 'Arial', 'Helvetica', 'Avant Garde', sans-serif; fill: #ffffff" transform="translate(326.069023 56.712299)">(A2A client)</text>
   </g>
   <g id="text_5">
    <text style="font-size: 8.5px; font-family: 'DejaVu Sans', 'Bitstream Vera Sans', 'Computer Modern Sans Serif', 'Lucida Grande', 'Verdana', 'Geneva', 'Lucid', 'Arial', 'Helvetica', 'Avant Garde', sans-serif; text-anchor: middle; fill: #1f3b73" x="215.892" y="84.943869" transform="rotate(-0 215.892 84.943869)">static</text>
   </g>
   <g id="text_6">
    <text style="font-size: 8.5px; font-family: 'DejaVu Sans', 'Bitstream Vera Sans', 'Computer Modern Sans Serif', 'Lucida Grande', 'Verdana', 'Geneva', 'Lucid', 'Arial', 'Helvetica', 'Avant Garde', sans-serif; text-anchor: middle; fill: #1f3b73" x="290.106" y="84.825666" transform="rotate(-0 290.106 84.825666)">card_discovery</text>
   </g>
   <g id="text_7">
    <text style="font-size: 8.5px; font-family: 'DejaVu Sans', 'Bitstream Vera Sans', 'Computer Modern Sans Serif', 'Lucida Grande', 'Verdana', 'Geneva', 'Lucid', 'Arial', 'Helvetica', 'Avant Garde', sans-serif; text-anchor: middle; fill: #1f3b73" x="364.32" y="84.943869" transform="rotate(-0 364.32 84.943869)">cached</text>
   </g>
   <g id="text_8">
    <text style="font-size: 8.5px; font-family: 'DejaVu Sans', 'Bitstream Vera Sans', 'Computer Modern Sans Serif', 'Lucida Grande', 'Verdana', 'Geneva', 'Lucid', 'Arial', 'Helvetica', 'Avant Garde', sans-serif; text-anchor: middle; fill: #1f3b73" x="438.534" y="84.825666" transform="rotate(-0 438.534 84.825666)">registry_skill</text>
   </g>
   <g id="text_9">
    <text style="font-size: 8.5px; font-family: 'DejaVu Sans', 'Bitstream Vera Sans', 'Computer Modern Sans Serif', 'Lucida Grande', 'Verdana', 'Geneva', 'Lucid', 'Arial', 'Helvetica', 'Avant Garde', sans-serif; text-anchor: middle; fill: #1f3b73" x="512.748" y="84.825666" transform="rotate(-0 512.748 84.825666)">llm_reasoned</text>
   </g>
   <g id="text_10">
    <text style="font-weight: 700; font-size: 10.5px; font-family: 'DejaVu Sans', 'Bitstream Vera Sans', 'Computer Modern Sans Serif', 'Lucida Grande', 'Verdana', 'Geneva', 'Lucid', 'Arial', 'Helvetica', 'Avant Garde', sans-serif; fill: #8a6d1a" transform="translate(540.735469 136.236182)">AGENT DIRECTORY</text>
    <text style="font-weight: 700; font-size: 10.5px; font-family: 'DejaVu Sans', 'Bitstream Vera Sans', 'Computer Modern Sans Serif', 'Lucida Grande', 'Verdana', 'Geneva', 'Lucid', 'Arial', 'Helvetica', 'Avant Garde', sans-serif; fill: #8a6d1a" transform="translate(533.186953 149.988475)">(registry · port 9000)</text>
   </g>
   <g id="text_11">
    <text style="font-weight: 700; font-size: 8.5px; font-family: 'DejaVu Sans', 'Bitstream Vera Sans', 'Computer Modern Sans Serif', 'Lucida Grande', 'Verdana', 'Geneva', 'Lucid', 'Arial', 'Helvetica', 'Avant Garde', sans-serif; fill: #1e4d1e" transform="translate(87.724922 289.495064)">summarizer</text>
    <text style="font-weight: 700; font-size: 8.5px; font-family: 'DejaVu Sans', 'Bitstream Vera Sans', 'Computer Modern Sans Serif', 'Lucida Grande', 'Verdana', 'Geneva', 'Lucid', 'Arial', 'Helvetica', 'Avant Garde', sans-serif; fill: #1e4d1e" transform="translate(46.17918 300.627873)">:8101  skills: summarize, tldr</text>
   </g>
   <g id="text_12">
    <text style="font-weight: 700; font-size: 8.5px; font-family: 'DejaVu Sans', 'Bitstream Vera Sans', 'Computer Modern Sans Serif', 'Lucida Grande', 'Verdana', 'Geneva', 'Lucid', 'Arial', 'Helvetica', 'Avant Garde', sans-serif; fill: #1e4d1e" transform="translate(260.603813 289.461861)">translator</text>
    <text style="font-weight: 700; font-size: 8.5px; font-family: 'DejaVu Sans', 'Bitstream Vera Sans', 'Computer Modern Sans Serif', 'Lucida Grande', 'Verdana', 'Geneva', 'Lucid', 'Arial', 'Helvetica', 'Avant Garde', sans-serif; fill: #1e4d1e" transform="translate(206.340609 300.59467)">:8102  skills: translate, multiling</text>
   </g>
   <g id="text_13">
    <text style="font-weight: 700; font-size: 8.5px; font-family: 'DejaVu Sans', 'Bitstream Vera Sans', 'Computer Modern Sans Serif', 'Lucida Grande', 'Verdana', 'Geneva', 'Lucid', 'Arial', 'Helvetica', 'Avant Garde', sans-serif; fill: #1e4d1e" transform="translate(430.856336 289.495064)">extractor</text>
    <text style="font-weight: 700; font-size: 8.5px; font-family: 'DejaVu Sans', 'Bitstream Vera Sans', 'Computer Modern Sans Serif', 'Lucida Grande', 'Verdana', 'Geneva', 'Lucid', 'Arial', 'Helvetica', 'Avant Garde', sans-serif; fill: #1e4d1e" transform="translate(394.900672 300.627873)">:8103  skills: extract, pii</text>
   </g>
   <g id="text_14">
    <text style="font-weight: 700; font-size: 8.5px; font-family: 'DejaVu Sans', 'Bitstream Vera Sans', 'Computer Modern Sans Serif', 'Lucida Grande', 'Verdana', 'Geneva', 'Lucid', 'Arial', 'Helvetica', 'Avant Garde', sans-serif; fill: #1e4d1e" transform="translate(599.913547 289.461861)">classifier</text>
    <text style="font-weight: 700; font-size: 8.5px; font-family: 'DejaVu Sans', 'Bitstream Vera Sans', 'Computer Modern Sans Serif', 'Lucida Grande', 'Verdana', 'Geneva', 'Lucid', 'Arial', 'Helvetica', 'Avant Garde', sans-serif; fill: #1e4d1e" transform="translate(557.185773 300.59467)">:8104  skills: classify, label</text>
   </g>
   <g id="text_15">
    <text style="font-size: 8.5px; font-family: 'DejaVu Sans', 'Bitstream Vera Sans', 'Computer Modern Sans Serif', 'Lucida Grande', 'Verdana', 'Geneva', 'Lucid', 'Arial', 'Helvetica', 'Avant Garde', sans-serif; text-anchor: middle; fill: #8a6d1a" x="473.13" y="108.228669" transform="rotate(-0 473.13 108.228669)">skill search</text>
   </g>
   <g id="text_16">
    <text style="font-size: 8.5px; font-family: 'DejaVu Sans', 'Bitstream Vera Sans', 'Computer Modern Sans Serif', 'Lucida Grande', 'Verdana', 'Geneva', 'Lucid', 'Arial', 'Helvetica', 'Avant Garde', sans-serif; text-anchor: start; fill: #8a6d1a" x="612.63" y="196.378269" transform="rotate(-0 612.63 196.378269)">serves Agent Cards</text>
   </g>
   <g id="text_17">
    <text style="font-size: 9px; font-family: 'DejaVu Sans', 'Bitstream Vera Sans', 'Computer Modern Sans Serif', 'Lucida Grande', 'Verdana', 'Geneva', 'Lucid', 'Arial', 'Helvetica', 'Avant Garde', sans-serif; text-anchor: middle; fill: #888888" x="364.32" y="383.903437" transform="rotate(-0 364.32 383.903437)">Each agent serves its Agent Card at /.well-known/agent-card.json</text>
   </g>
  </g>
 </g>
 <defs>
  <clipPath id="p7ff658e783">
   <rect x="7.2" y="7.2" width="714.24" height="399.168"/>
  </clipPath>
 </defs>
</svg>
